<svg width="164px" height="104px" viewBox="0 0 164 104" version="1.1" xmlns="http://www.w3.org/2000/svg" xmlns:xlink="http://www.w3.org/1999/xlink">
    <!-- Generator: Sketch 48.2 (47327) - http://www.bohemiancoding.com/sketch -->
    <desc>Created with Sketch.</desc>
    <defs></defs>
    <g id="Symbols" stroke="none" stroke-width="1" fill="none" fill-rule="evenodd">
        <g id="Group-3" fill="#ccc">
            <g id="Group">
                <rect id="Rectangle" x="0" y="0" width="4" height="4"></rect>
                <rect id="Rectangle-Copy" x="20" y="0" width="4" height="4"></rect>
                <rect id="Rectangle-Copy-2" x="40" y="0" width="4" height="4"></rect>
                <rect id="Rectangle-Copy-3" x="60" y="0" width="4" height="4"></rect>
                <rect id="Rectangle-Copy-4" x="80" y="0" width="4" height="4"></rect>
                <rect id="Rectangle-Copy-5" x="100" y="0" width="4" height="4"></rect>
                <rect id="Rectangle-Copy-6" x="120" y="0" width="4" height="4"></rect>
                <rect id="Rectangle-Copy-7" x="140" y="0" width="4" height="4"></rect>
                <rect id="Rectangle-Copy-8" x="160" y="0" width="4" height="4"></rect>
                <rect id="Rectangle" x="0" y="20" width="4" height="4"></rect>
                <rect id="Rectangle-Copy" x="20" y="20" width="4" height="4"></rect>
                <rect id="Rectangle-Copy-2" x="40" y="20" width="4" height="4"></rect>
                <rect id="Rectangle-Copy-3" x="60" y="20" width="4" height="4"></rect>
                <rect id="Rectangle-Copy-4" x="80" y="20" width="4" height="4"></rect>
                <rect id="Rectangle-Copy-5" x="100" y="20" width="4" height="4"></rect>
                <rect id="Rectangle-Copy-6" x="120" y="20" width="4" height="4"></rect>
                <rect id="Rectangle-Copy-7" x="140" y="20" width="4" height="4"></rect>
                <rect id="Rectangle-Copy-8" x="160" y="20" width="4" height="4"></rect>
                <rect id="Rectangle" x="0" y="40" width="4" height="4"></rect>
                <rect id="Rectangle-Copy" x="20" y="40" width="4" height="4"></rect>
                <rect id="Rectangle-Copy-2" x="40" y="40" width="4" height="4"></rect>
                <rect id="Rectangle-Copy-3" x="60" y="40" width="4" height="4"></rect>
                <rect id="Rectangle-Copy-4" x="80" y="40" width="4" height="4"></rect>
                <rect id="Rectangle-Copy-5" x="100" y="40" width="4" height="4"></rect>
                <rect id="Rectangle-Copy-6" x="120" y="40" width="4" height="4"></rect>
                <rect id="Rectangle-Copy-7" x="140" y="40" width="4" height="4"></rect>
                <rect id="Rectangle-Copy-8" x="160" y="40" width="4" height="4"></rect>
                <rect id="Rectangle" x="0" y="60" width="4" height="4"></rect>
                <rect id="Rectangle-Copy" x="20" y="60" width="4" height="4"></rect>
                <rect id="Rectangle-Copy-2" x="40" y="60" width="4" height="4"></rect>
                <rect id="Rectangle-Copy-3" x="60" y="60" width="4" height="4"></rect>
                <rect id="Rectangle-Copy-4" x="80" y="60" width="4" height="4"></rect>
                <rect id="Rectangle-Copy-5" x="100" y="60" width="4" height="4"></rect>
                <rect id="Rectangle-Copy-6" x="120" y="60" width="4" height="4"></rect>
                <rect id="Rectangle-Copy-7" x="140" y="60" width="4" height="4"></rect>
                <rect id="Rectangle-Copy-8" x="160" y="60" width="4" height="4"></rect>
                <rect id="Rectangle" x="0" y="80" width="4" height="4"></rect>
                <rect id="Rectangle-Copy" x="20" y="80" width="4" height="4"></rect>
                <rect id="Rectangle-Copy-2" x="40" y="80" width="4" height="4"></rect>
                <rect id="Rectangle-Copy-3" x="60" y="80" width="4" height="4"></rect>
                <rect id="Rectangle-Copy-4" x="80" y="80" width="4" height="4"></rect>
                <rect id="Rectangle-Copy-5" x="100" y="80" width="4" height="4"></rect>
                <rect id="Rectangle-Copy-6" x="120" y="80" width="4" height="4"></rect>
                <rect id="Rectangle-Copy-7" x="140" y="80" width="4" height="4"></rect>
                <rect id="Rectangle-Copy-8" x="160" y="80" width="4" height="4"></rect>
                <rect id="Rectangle" x="0" y="100" width="4" height="4"></rect>
                <rect id="Rectangle-Copy" x="20" y="100" width="4" height="4"></rect>
                <rect id="Rectangle-Copy-2" x="40" y="100" width="4" height="4"></rect>
                <rect id="Rectangle-Copy-3" x="60" y="100" width="4" height="4"></rect>
                <rect id="Rectangle-Copy-4" x="80" y="100" width="4" height="4"></rect>
                <rect id="Rectangle-Copy-5" x="100" y="100" width="4" height="4"></rect>
                <rect id="Rectangle-Copy-6" x="120" y="100" width="4" height="4"></rect>
                <rect id="Rectangle-Copy-7" x="140" y="100" width="4" height="4"></rect>
                <rect id="Rectangle-Copy-8" x="160" y="100" width="4" height="4"></rect>
            </g>
        </g>
    </g>
</svg>